<?xml version="1.0" encoding="UTF-8" standalone="no"?>
<svg
   xmlns:dc="http://purl.org/dc/elements/1.1/"
   xmlns:cc="http://creativecommons.org/ns#"
   xmlns:rdf="http://www.w3.org/1999/02/22-rdf-syntax-ns#"
   xmlns:svg="http://www.w3.org/2000/svg"
   xmlns="http://www.w3.org/2000/svg"
   xmlns:xlink="http://www.w3.org/1999/xlink"
   xmlns:sodipodi="http://sodipodi.sourceforge.net/DTD/sodipodi-0.dtd"
   xmlns:inkscape="http://www.inkscape.org/namespaces/inkscape"
   version="1.1"
   width="128"
   height="128"
   id="svg5157"
   sodipodi:docname="com.github.bartzaalberg.lottery.svg"
   inkscape:version="0.91 r13725">
  <sodipodi:namedview
     pagecolor="#ffffff"
     bordercolor="#666666"
     inkscape:document-rotation="0"
     borderopacity="1"
     objecttolerance="10"
     gridtolerance="10"
     guidetolerance="10"
     inkscape:pageopacity="0"
     inkscape:pageshadow="2"
     inkscape:window-width="966"
     inkscape:window-height="409"
     id="namedview34"
     showgrid="false"
     inkscape:zoom="0.91796875"
     inkscape:cx="-112.42072"
     inkscape:cy="72.318596"
     inkscape:window-x="3165"
     inkscape:window-y="499"
     inkscape:window-maximized="0"
     inkscape:current-layer="svg5157" />
  <defs
     id="defs5159">
    <linearGradient
       id="linearGradient1225">
      <stop
         id="stop1221"
         offset="0"
         style="stop-color:#f37329;stop-opacity:1" />
      <stop
         id="stop1223"
         offset="1"
         style="stop-color:#e95420;stop-opacity:1" />
    </linearGradient>
    <linearGradient
       id="linearGradient3820-7-2-8-6">
      <stop
         id="stop3822-2-6-5-0"
         style="stop-color:#3d3d3d;stop-opacity:1"
         offset="0" />
      <stop
         id="stop3864-8-7-4-1"
         style="stop-color:#686868;stop-opacity:0.49803922"
         offset="0.5" />
      <stop
         id="stop3824-1-2-6-7"
         style="stop-color:#686868;stop-opacity:0"
         offset="1" />
    </linearGradient>
    <linearGradient
       id="linearGradient4806">
      <stop
         offset="0"
         style="stop-color:#ffffff;stop-opacity:1"
         id="stop4808" />
      <stop
         offset="0.42447853"
         style="stop-color:#ffffff;stop-opacity:0.23529412"
         id="stop4810" />
      <stop
         offset="0.82089913"
         style="stop-color:#ffffff;stop-opacity:0.15686275"
         id="stop4812" />
      <stop
         offset="1"
         style="stop-color:#ffffff;stop-opacity:0.39215687"
         id="stop4814" />
    </linearGradient>
    <linearGradient
       xlink:href="#linearGradient4806"
       id="linearGradient3118"
       gradientUnits="userSpaceOnUse"
       gradientTransform="matrix(4.16388,0,0,4.16388,-237.90031,-51.829821)"
       x1="71.204407"
       y1="15.369057"
       x2="71.204407"
       y2="40.495617" />
    <radialGradient
       xlink:href="#linearGradient3820-7-2-8-6"
       id="radialGradient3163"
       gradientUnits="userSpaceOnUse"
       gradientTransform="matrix(0.75814376,0,0,0.2368626,-10.029824,66.656498)"
       cx="99.157013"
       cy="186.17059"
       fx="99.157013"
       fy="186.17059"
       r="62.769119" />
    <linearGradient
       gradientUnits="userSpaceOnUse"
       y2="118.04783"
       x2="64.5"
       y1="13.998179"
       x1="64.5"
       id="linearGradient1227"
       xlink:href="#linearGradient1225" />
  </defs>
  <metadata
     id="metadata5162">
    <rdf:RDF>
      <cc:Work
         rdf:about="">
        <dc:format>image/svg+xml</dc:format>
        <dc:type
           rdf:resource="http://purl.org/dc/dcmitype/StillImage" />
        <dc:title />
      </cc:Work>
    </rdf:RDF>
  </metadata>
  <path
     style="fill:url(#radialGradient3163);fill-opacity:1;stroke:none"
     id="path3818-0-5-0"
     d="m 112.73346,110.75334 a 47.588017,14.867653 0 0 1 -95.17603,0 47.588017,14.867653 0 1 1 95.17603,0 z"
     inkscape:connector-curvature="0" />
  <circle
     style="opacity:1;fill:#ff2a2a;fill-opacity:1;stroke-width:1"
     id="circle7"
     r="57.38995"
     cy="63.848301"
     cx="64.935425"
     class="st1" />
  <path
     style="color:#000000;display:inline;overflow:visible;visibility:visible;opacity:0.5;fill:#ff2a2a;fill-opacity:0;fill-rule:nonzero;stroke:#a62100;stroke-width:1.10365295;stroke-linecap:round;stroke-linejoin:round;stroke-miterlimit:4;stroke-dasharray:none;stroke-dashoffset:0;stroke-opacity:1;marker:none;enable-background:accumulate"
     id="path2555-7-1"
     d="m 65.594393,6.4244731 c -31.665795,0 -57.3899518,25.7241509 -57.3899518,57.3899479 0,31.665797 25.7241568,57.389969 57.3899518,57.389959 31.66579,0 57.389967,-25.724162 57.389947,-57.389959 0,-31.665797 -25.724157,-57.3899479 -57.389947,-57.3899479 z"
     inkscape:connector-curvature="0" />
  <style
     id="style3"
     type="text/css">
	.st0{fill:url(#SVGID_1_);}
	.st1{fill:url(#SVGID_2_);}
	.st2{fill:url(#SVGID_3_);}
	.st3{fill:url(#SVGID_4_);}
	.st4{fill:url(#SVGID_5_);}
	.st5{fill:url(#SVGID_6_);}
	.st6{opacity:0.29;}
	.st7{fill:url(#SVGID_7_);}
</style>
  <g
     id="g4177"
     transform="matrix(1.1036529,0,0,1.1036529,29.594278,27.388913)"
     style="fill:#ffffff">
    <path
       style="opacity:0.28999999;fill:#ffffff"
       inkscape:connector-curvature="0"
       id="path80"
       d="m 59.563461,23.687429 c 0,0.214102 0,0.428206 0,0.428206 -1.263818,4.924368 -2.316997,10.27694 -3.580815,15.843617 -0.210636,0.856411 -0.842544,1.498721 -1.474452,1.498721 -7.16163,0.856412 -14.533897,1.284616 -21.906162,1.284616 0,0 0,0 0,0 -7.372266,0 -14.744532,-0.428204 -21.906161,-1.284616 -0.8425459,0 -1.4744554,-0.64231 -1.6850902,-1.498721 C 7.7469644,34.392575 6.6937827,29.040003 5.4299663,24.115635 c 0,-0.214104 0,-0.428206 0,-0.428206 -1.4744538,-0.214104 -2.3169987,-1.498721 -2.3169987,-2.997443 0,-1.926925 1.4744531,-3.853852 3.3701778,-4.282059 1.8957272,-0.428206 3.3701797,1.070515 3.3701797,3.211545 0,1.284617 -0.4212722,2.355132 -1.2638177,3.211544 1.4744546,1.498722 2.9489076,3.211543 4.4233616,4.924368 1.053179,1.284619 2.738269,2.141029 4.423358,2.141029 1.895725,0 3.791451,-1.070514 5.055269,-2.99744 2.527634,-4.067957 5.055268,-8.350018 7.582902,-12.632075 -0.631909,-0.856412 -1.053183,-1.926927 -1.053183,-2.997441 0,-2.355131 1.474455,-4.4961608 3.580817,-4.4961608 1.895724,0 3.580815,2.1410298 3.580815,4.4961608 0,1.070514 -0.421274,2.141029 -1.053182,2.997441 0,0 0,0 0,0 2.527634,4.282057 5.05527,8.564118 7.582903,12.632075 1.263816,1.926926 2.948906,3.211543 5.055268,3.211543 1.68509,0 3.159541,-0.642309 4.42336,-1.926927 1.474451,-1.712822 2.948906,-3.425647 4.633996,-4.924368 -0.842546,-0.85641 -1.263819,-1.926925 -1.263819,-3.211543 0,-2.14103 1.474454,-3.639751 3.370178,-3.211544 1.895728,0.428206 3.37018,2.355131 3.37018,4.282058 -0.631908,1.070516 -1.474452,2.141029 -2.73827,2.569237 z m -4.002088,23.551324 c 0,-1.070517 -0.631908,-1.712826 -1.685089,-1.498721 -14.112623,2.141029 -28.857154,2.141029 -42.969777,0 -0.842545,-0.214105 -1.6850914,0.642309 -1.6850914,1.498721 0,1.498721 0,2.99744 0,4.496161 0,1.070514 0.6319095,2.14103 1.6850914,2.355134 14.112623,3.425646 28.857154,3.425646 42.969777,0 0.842546,-0.214104 1.685089,-1.28462 1.685089,-2.355134 0,-1.498721 0,-2.99744 0,-4.496161 z"
       class="st6" />
    <path
       inkscape:connector-curvature="0"
       style="fill:#ffffff"
       id="path87"
       d="m 59.142189,23.901531 c 0,0.214104 0,0.428207 0,0.428207 -1.263817,4.924366 -2.316997,10.27694 -3.580816,15.843617 -0.210635,0.856411 -0.842543,1.498721 -1.474452,1.498721 -7.161628,0.856412 -14.533894,1.284617 -21.906161,1.284617 0,0 0,0 0,0 -7.372266,0 -14.744533,-0.428205 -21.906161,-1.284617 -0.8425461,0 -1.4744543,-0.64231 -1.6850916,-1.498721 C 7.3256909,34.606678 6.2725106,29.254104 5.0086929,24.329738 c 0,-0.214103 0,-0.428207 0,-0.428207 -1.4744532,-0.214102 -2.5276338,-1.49872 -2.5276338,-2.997442 0,-1.926925 1.4744534,-3.853854 3.3701781,-4.282058 1.8957272,-0.428206 3.3701784,1.070514 3.3701784,3.211543 0,1.284618 -0.4212709,2.355134 -1.2638152,3.211545 1.4744525,1.49872 2.9489066,3.211545 4.4233606,4.924367 1.05318,1.284618 2.738268,2.14103 4.423357,2.14103 1.895726,0 3.791452,-1.070513 5.055268,-2.99744 2.527634,-4.067957 5.055269,-8.350015 7.582903,-12.632075 -0.631909,-0.856411 -1.053182,-1.926927 -1.053182,-2.997441 0,-2.3551324 1.474455,-4.4961622 3.580816,-4.4961622 1.895724,0 3.580816,2.1410298 3.580816,4.4961622 0,1.070514 -0.421274,2.14103 -1.053183,2.997441 0,0 0,0 0,0 2.527635,4.28206 5.055271,8.564118 7.582905,12.632075 1.263815,1.926927 2.948905,3.211543 5.055267,3.211543 1.685088,0 3.159542,-0.642308 4.423357,-1.926926 1.474455,-1.712824 2.948909,-3.425647 4.633996,-4.924368 -0.842543,-0.856413 -1.263816,-1.926926 -1.263816,-3.211544 0,-2.14103 1.474452,-3.63975 3.370178,-3.211546 1.895726,0.428207 3.37018,2.355134 3.37018,4.282061 -0.210636,1.070515 -1.05318,2.141029 -2.527634,2.569235 z m -4.002087,23.551323 c 0,-1.070513 -0.631908,-1.712822 -1.68509,-1.49872 -14.112623,2.141029 -28.857156,2.141029 -42.969779,0 -0.842544,-0.214102 -1.6850883,0.64231 -1.6850883,1.49872 0,1.498722 0,2.997443 0,4.496164 0,1.070513 0.6319082,2.14103 1.6850883,2.355132 14.112623,3.425646 28.857156,3.425646 42.969779,0 0.842545,-0.214102 1.68509,-1.284619 1.68509,-2.355132 0,-1.498721 0,-2.997442 0,-4.496164 z"
       class="st7" />
  </g>
</svg>
