<?xml version="1.0" encoding="UTF-8" standalone="no"?>
<!-- Generator: Adobe Illustrator 19.2.1, SVG Export Plug-In . SVG Version: 6.00 Build 0)  -->

<svg
   xmlns:dc="http://purl.org/dc/elements/1.1/"
   xmlns:cc="http://creativecommons.org/ns#"
   xmlns:rdf="http://www.w3.org/1999/02/22-rdf-syntax-ns#"
   xmlns:svg="http://www.w3.org/2000/svg"
   xmlns="http://www.w3.org/2000/svg"
   xmlns:xlink="http://www.w3.org/1999/xlink"
   xmlns:sodipodi="http://sodipodi.sourceforge.net/DTD/sodipodi-0.dtd"
   xmlns:inkscape="http://www.inkscape.org/namespaces/inkscape"
   version="1.1"
   id="svg5875"
   inkscape:version="0.91 r13725"
   sodipodi:docname="lottery-crown.svg"
   x="0px"
   y="0px"
   viewBox="0 0 64 64"
   style="enable-background:new 0 0 64 64;"
   xml:space="preserve"><metadata
     id="metadata91"><rdf:RDF><cc:Work
         rdf:about=""><dc:format>image/svg+xml</dc:format><dc:type
           rdf:resource="http://purl.org/dc/dcmitype/StillImage" /><dc:title /></cc:Work></rdf:RDF></metadata><defs
     id="defs89" /><style
     type="text/css"
     id="style3">
	.st0{fill:url(#SVGID_1_);}
	.st1{fill:url(#SVGID_2_);}
	.st2{fill:url(#SVGID_3_);}
	.st3{fill:url(#SVGID_4_);}
	.st4{fill:url(#SVGID_5_);}
	.st5{fill:url(#SVGID_6_);}
	.st6{opacity:0.29;}
	.st7{fill:url(#SVGID_7_);}
</style><radialGradient
     id="SVGID_4_"
     cx="26.1306"
     cy="13.064"
     r="17.6845"
     gradientUnits="userSpaceOnUse"><stop
       offset="4.838710e-002"
       style="stop-color:#D3B6B6"
       id="stop57" /><stop
       offset="1"
       style="stop-color:#660000"
       id="stop59" /></radialGradient><sodipodi:namedview
     bordercolor="#666666"
     borderopacity="1.0"
     id="base"
     inkscape:current-layer="svg5875"
     inkscape:cx="-2.3374269"
     inkscape:cy="37.601397"
     inkscape:document-units="px"
     inkscape:grid-bbox="true"
     inkscape:pageopacity="0.0"
     inkscape:pageshadow="2"
     inkscape:window-height="1329"
     inkscape:window-maximized="1"
     inkscape:window-width="2560"
     inkscape:window-x="2116"
     inkscape:window-y="30"
     inkscape:zoom="7.7781746"
     pagecolor="#ffffff"
     showgrid="true" /><radialGradient
     id="SVGID_5_"
     cx="50.9603"
     cy="22.2112"
     r="17.6845"
     gradientUnits="userSpaceOnUse"><stop
       offset="0"
       style="stop-color:#E2C6E2"
       id="stop65" /><stop
       offset="1"
       style="stop-color:#993399"
       id="stop67" /></radialGradient><sodipodi:namedview
     bordercolor="#666666"
     borderopacity="1.0"
     id="namedview71"
     inkscape:current-layer="layer1"
     inkscape:cx="204.31622"
     inkscape:cy="-59.481829"
     inkscape:document-units="px"
     inkscape:grid-bbox="true"
     inkscape:pageopacity="0.0"
     inkscape:pageshadow="2"
     inkscape:window-height="1017"
     inkscape:window-maximized="1"
     inkscape:window-width="1920"
     inkscape:window-x="0"
     inkscape:window-y="30"
     inkscape:zoom="0.97227183"
     pagecolor="#ffffff"
     showgrid="true" /><radialGradient
     id="SVGID_6_"
     cx="37.183399"
     cy="34.102501"
     r="17.6845"
     gradientUnits="userSpaceOnUse"
     gradientTransform="matrix(1.6355608,0,0,1.6355608,-20.273661,-36.707447)"
     xlink:href="#SVGID_7_"><stop
       offset="0.2097"
       style="stop-color:#ff8080;stop-opacity:1"
       id="stop74" /><stop
       offset="1"
       style="stop-color:#FF0033"
       id="stop76" /></radialGradient><radialGradient
     id="SVGID_7_"
     cx="39.7751"
     cy="31.6131"
     r="28.8812"
     gradientUnits="userSpaceOnUse"
     gradientTransform="matrix(1.6355608,0,0,1.6355608,-20.273661,-36.707447)"><stop
       offset="0"
       style="stop-color:#FFFFFF"
       id="stop83" /><stop
       offset="1"
       style="stop-color:#FFCC66"
       id="stop85" /></radialGradient><path
     class="st7"
     d="m 58.885059,23.772967 c 0,0.214104 0,0.428207 0,0.428207 -1.263817,4.924366 -2.316997,10.27694 -3.580816,15.843617 -0.210635,0.856411 -0.842543,1.498721 -1.474452,1.498721 -7.161628,0.856412 -14.533894,1.284617 -21.906161,1.284617 0,0 0,0 0,0 -7.372266,0 -14.744533,-0.428205 -21.906161,-1.284617 -0.842546,0 -1.474454,-0.64231 -1.685091,-1.498721 C 7.068561,34.478114 6.015381,29.12554 4.751563,24.201174 c 0,-0.214103 0,-0.428207 0,-0.428207 -1.474453,-0.214102 -2.527634,-1.49872 -2.527634,-2.997442 0,-1.926925 1.474454,-3.853854 3.370179,-4.282058 1.895727,-0.428206 3.370178,1.070514 3.370178,3.211543 0,1.284618 -0.421271,2.355134 -1.263815,3.211545 1.474452,1.49872 2.948906,3.211545 4.42336,4.924367 1.05318,1.284618 2.738268,2.14103 4.423357,2.14103 1.895726,0 3.791452,-1.070513 5.055268,-2.99744 2.527634,-4.067957 5.055269,-8.350015 7.582903,-12.632075 -0.631909,-0.856411 -1.053182,-1.926927 -1.053182,-2.997441 0,-2.3551323 1.474455,-4.4961633 3.580816,-4.4961633 1.895724,0 3.580816,2.141031 3.580816,4.4961633 0,1.070514 -0.421274,2.14103 -1.053183,2.997441 0,0 0,0 0,0 2.527635,4.28206 5.055271,8.564118 7.582905,12.632075 1.263815,1.926927 2.948905,3.211543 5.055267,3.211543 1.685088,0 3.159542,-0.642308 4.423357,-1.926926 1.474455,-1.712824 2.948909,-3.425647 4.633996,-4.924368 -0.842543,-0.856413 -1.263816,-1.926926 -1.263816,-3.211544 0,-2.14103 1.474452,-3.63975 3.370178,-3.211546 1.895726,0.428207 3.37018,2.355134 3.37018,4.282061 -0.210636,1.070515 -1.05318,2.141029 -2.527634,2.569235 z M 54.882972,47.32429 c 0,-1.070513 -0.631908,-1.712822 -1.68509,-1.49872 -14.112623,2.141029 -28.857156,2.141029 -42.969779,0 -0.842544,-0.214102 -1.685088,0.64231 -1.685088,1.49872 0,1.498722 0,2.997443 0,4.496164 0,1.070513 0.631908,2.14103 1.685088,2.355132 14.112623,3.425646 28.857156,3.425646 42.969779,0 0.842545,-0.214102 1.68509,-1.284619 1.68509,-2.355132 0,-1.498721 0,-2.997442 0,-4.496164 z"
     id="path87"
     style="fill:#ffffff"
     inkscape:connector-curvature="0" /></svg>